<?xml version="1.0" encoding="UTF-8" ?>
<!DOCTYPE svg PUBLIC "-//W3C//DTD SVG 1.1//EN" "http://www.w3.org/Graphics/SVG/1.1/DTD/svg11.dtd">
<svg width="512pt" height="512pt" viewBox="0 0 512 512" version="1.1" xmlns="http://www.w3.org/2000/svg">
<g id="#000000ff">
<path fill="#000000" opacity="1.00" d=" M 352.68 45.73 C 372.30 31.78 397.02 25.33 420.95 27.82 C 446.48 30.25 470.78 43.02 487.44 62.49 C 502.70 80.05 511.47 103.01 512.00 126.25 L 512.00 133.53 C 510.75 153.67 503.83 173.54 491.44 189.54 C 488.96 192.86 484.06 193.06 480.81 190.79 C 477.83 188.00 477.19 183.17 479.90 179.97 C 489.78 166.68 495.83 150.54 496.78 133.98 C 498.27 112.87 491.46 91.38 478.24 74.88 C 460.75 52.57 431.71 39.86 403.44 42.69 C 385.20 44.09 367.57 51.76 353.89 63.86 C 340.49 75.62 330.87 91.62 326.88 109.00 C 322.24 128.87 324.93 150.37 334.49 168.41 C 347.75 194.01 374.56 212.16 403.40 214.25 C 422.34 216.01 441.85 211.16 457.73 200.68 C 461.25 197.54 466.91 197.18 470.08 201.03 C 471.97 204.14 471.99 208.59 469.05 211.06 C 463.41 215.47 456.89 218.54 450.50 221.66 C 454.25 291.12 452.59 360.88 445.50 430.08 C 444.89 436.76 444.42 443.59 441.79 449.85 C 435.85 465.28 420.64 476.59 404.12 477.71 C 291.30 486.59 177.82 486.98 64.95 478.93 C 55.30 477.87 45.25 478.59 36.08 474.93 C 23.29 470.15 13.10 459.08 9.34 445.97 C 7.87 441.13 7.58 436.05 7.05 431.05 C 2.58 388.10 0.34 344.93 0.00 301.76 L 0.00 285.24 C 0.39 239.71 2.90 194.18 7.88 148.92 C 9.53 134.56 18.72 121.19 31.75 114.85 C 35.51 113.17 39.80 115.38 41.56 118.87 C 42.84 122.61 41.24 126.94 37.63 128.65 C 27.36 134.26 21.07 146.39 22.89 158.02 C 24.93 173.45 32.49 187.46 40.44 200.60 C 60.05 231.73 85.52 258.76 112.89 283.18 C 140.40 307.29 170.53 328.86 203.91 344.07 C 211.18 347.34 218.63 350.21 226.20 352.69 C 251.50 344.70 274.78 331.49 296.65 316.68 C 332.60 291.84 365.15 261.99 392.63 227.99 C 368.27 223.60 345.81 209.84 330.75 190.22 C 315.33 170.43 307.75 144.74 310.06 119.75 C 228.39 116.58 146.55 118.14 65.02 123.88 C 61.43 124.41 57.73 122.17 56.72 118.65 C 55.84 114.92 57.45 110.62 61.30 109.40 C 66.10 108.43 71.04 108.60 75.91 108.15 C 154.62 102.86 233.61 101.83 312.44 104.75 C 318.16 81.07 332.72 59.69 352.68 45.73 M 18.87 193.09 C 18.58 196.86 18.33 200.64 18.07 204.42 C 13.75 267.81 14.09 331.50 18.86 394.85 C 35.96 362.26 60.33 334.12 86.54 308.54 C 87.89 307.05 89.65 306.05 91.62 305.60 C 95.93 305.19 99.78 308.55 100.18 312.81 C 100.01 315.26 99.00 317.59 97.11 319.20 C 80.83 334.93 65.56 351.76 52.11 369.98 C 43.35 381.99 35.24 394.58 29.22 408.21 C 25.97 415.79 23.22 423.76 22.66 432.05 C 21.94 441.80 26.78 451.63 34.70 457.29 C 39.95 461.21 46.52 462.89 53.00 463.01 C 169.48 471.98 286.66 471.92 403.12 462.73 C 414.61 461.92 425.01 453.60 428.47 442.64 C 431.57 433.52 428.95 423.74 425.95 414.96 C 420.01 398.85 410.70 384.24 400.68 370.40 C 387.07 351.90 371.58 334.85 355.08 318.90 C 353.44 317.49 352.69 315.45 352.29 313.39 C 352.35 308.58 356.92 304.70 361.71 305.77 C 363.69 306.45 365.30 307.80 366.73 309.30 C 392.62 334.71 416.82 362.59 433.61 394.97 C 437.86 338.94 438.66 282.63 435.72 226.50 C 431.23 227.66 426.65 228.42 422.06 229.02 C 418.13 229.64 413.93 229.14 410.13 229.94 C 383.37 264.62 351.45 295.22 316.23 321.23 C 290.10 340.16 261.96 357.00 231.07 366.88 C 228.82 367.60 226.39 368.52 224.03 367.67 C 211.37 363.84 199.16 358.66 187.34 352.77 C 160.86 339.37 136.33 322.36 113.51 303.45 C 87.81 281.93 64.01 258.01 43.52 231.44 C 34.25 219.37 25.97 206.55 18.87 193.09 Z" />
<path fill="#000000" opacity="1.00" d=" M 375.05 85.99 C 381.43 70.39 399.66 60.96 416.06 65.00 C 432.69 68.40 445.45 84.93 444.09 101.92 C 443.03 112.03 438.06 121.22 432.70 129.67 C 421.53 146.02 409.77 161.96 397.91 177.81 C 412.26 177.84 426.62 177.73 440.98 177.60 C 445.14 177.24 449.04 180.85 448.95 185.03 C 449.08 189.23 445.21 192.86 441.04 192.58 C 422.36 192.60 403.66 193.26 384.99 192.45 C 381.18 192.47 377.54 189.75 376.79 185.97 C 375.81 182.33 378.26 179.06 380.24 176.27 C 390.87 162.16 401.53 148.06 411.67 133.58 C 418.19 124.32 425.37 115.10 428.54 104.04 C 431.68 92.77 422.51 80.64 411.15 79.33 C 401.98 77.85 392.32 83.33 388.82 91.92 C 387.56 94.86 387.54 98.67 384.63 100.64 C 381.21 103.33 375.68 102.12 373.66 98.28 C 371.48 94.33 373.67 89.83 375.05 85.99 Z" />
</g>
<g id="#c32430ff">
<path fill="#c32430" opacity="1.00" d=" M 353.89 63.86 C 367.57 51.76 385.20 44.09 403.44 42.69 C 399.43 45.38 394.98 47.31 390.98 50.00 C 373.75 61.22 360.42 78.28 353.64 97.68 C 346.42 118.70 346.82 142.32 355.04 162.98 C 362.33 181.59 375.93 197.51 392.81 208.12 C 396.30 210.22 400.02 211.95 403.40 214.25 C 374.56 212.16 347.75 194.01 334.49 168.41 C 324.93 150.37 322.24 128.87 326.88 109.00 C 330.87 91.62 340.49 75.62 353.89 63.86 Z" />
</g>
<g id="#da4a54ff">
<path fill="#da4a54" opacity="1.00" d=" M 403.44 42.69 C 431.71 39.86 460.75 52.57 478.24 74.88 C 491.46 91.38 498.27 112.87 496.78 133.98 C 495.83 150.54 489.78 166.68 479.90 179.97 C 477.19 183.17 477.83 188.00 480.81 190.79 C 477.44 194.42 473.89 197.87 470.08 201.03 C 466.91 197.18 461.25 197.54 457.73 200.68 C 441.85 211.16 422.34 216.01 403.40 214.25 C 400.02 211.95 396.30 210.22 392.81 208.12 C 375.93 197.51 362.33 181.59 355.04 162.98 C 346.82 142.32 346.42 118.70 353.64 97.68 C 360.42 78.28 373.75 61.22 390.98 50.00 C 394.98 47.31 399.43 45.38 403.44 42.69 M 375.05 85.99 C 373.67 89.83 371.48 94.33 373.66 98.28 C 375.68 102.12 381.21 103.33 384.63 100.64 C 387.54 98.67 387.56 94.86 388.82 91.92 C 392.32 83.33 401.98 77.85 411.15 79.33 C 422.51 80.64 431.68 92.77 428.54 104.04 C 425.37 115.10 418.19 124.32 411.67 133.58 C 401.53 148.06 390.87 162.16 380.24 176.27 C 378.26 179.06 375.81 182.33 376.79 185.97 C 377.54 189.75 381.18 192.47 384.99 192.45 C 403.66 193.26 422.36 192.60 441.04 192.58 C 445.21 192.86 449.08 189.23 448.95 185.03 C 449.04 180.85 445.14 177.24 440.98 177.60 C 426.62 177.73 412.26 177.84 397.91 177.81 C 409.77 161.96 421.53 146.02 432.70 129.67 C 438.06 121.22 443.03 112.03 444.09 101.92 C 445.45 84.93 432.69 68.40 416.06 65.00 C 399.66 60.96 381.43 70.39 375.05 85.99 Z" />
</g>
<g id="#e4f6ffff">
<path fill="#e4f6ff" opacity="1.00" d=" M 41.56 118.87 C 45.99 117.73 50.56 117.37 55.11 117.14 C 55.64 117.65 56.17 118.15 56.72 118.65 C 57.73 122.17 61.43 124.41 65.02 123.88 C 146.55 118.14 228.39 116.58 310.06 119.75 C 307.75 144.74 315.33 170.43 330.75 190.22 C 345.81 209.84 368.27 223.60 392.63 227.99 C 365.15 261.99 332.60 291.84 296.65 316.68 C 274.78 331.49 251.50 344.70 226.20 352.69 C 218.63 350.21 211.18 347.34 203.91 344.07 C 170.53 328.86 140.40 307.29 112.89 283.18 C 85.52 258.76 60.05 231.73 40.44 200.60 C 32.49 187.46 24.93 173.45 22.89 158.02 C 21.07 146.39 27.36 134.26 37.63 128.65 C 41.24 126.94 42.84 122.61 41.56 118.87 Z" />
<path fill="#e4f6ff" opacity="1.00" d=" M 18.07 204.42 C 20.59 207.79 21.43 211.99 23.31 215.69 C 36.78 244.14 57.07 268.68 78.43 291.54 C 82.61 296.42 87.94 300.28 91.62 305.60 C 89.65 306.05 87.89 307.05 86.54 308.54 C 60.33 334.12 35.96 362.26 18.86 394.85 C 14.09 331.50 13.75 267.81 18.07 204.42 Z" />
<path fill="#e4f6ff" opacity="1.00" d=" M 422.06 229.02 C 426.65 228.42 431.23 227.66 435.72 226.50 C 438.66 282.63 437.86 338.94 433.61 394.97 C 416.82 362.59 392.62 334.71 366.73 309.30 C 365.30 307.80 363.69 306.45 361.71 305.77 C 361.64 305.39 361.51 304.62 361.44 304.24 C 376.05 289.86 390.03 274.79 402.45 258.46 C 409.53 249.04 416.64 239.53 422.06 229.02 Z" />
<path fill="#e4f6ff" opacity="1.00" d=" M 100.18 312.81 C 114.23 325.57 128.86 337.72 144.33 348.74 C 168.27 365.71 193.94 380.73 221.86 390.12 C 223.80 390.67 225.84 391.65 227.88 390.94 C 248.33 384.70 267.47 374.83 285.67 363.72 C 305.99 351.19 325.11 336.74 343.09 321.05 C 346.12 318.45 348.82 315.43 352.29 313.39 C 352.69 315.45 353.44 317.49 355.08 318.90 C 371.58 334.85 387.07 351.90 400.68 370.40 C 410.70 384.24 420.01 398.85 425.95 414.96 C 428.95 423.74 431.57 433.52 428.47 442.64 C 425.01 453.60 414.61 461.92 403.12 462.73 C 286.66 471.92 169.48 471.98 53.00 463.01 C 46.52 462.89 39.95 461.21 34.70 457.29 C 26.78 451.63 21.94 441.80 22.66 432.05 C 23.22 423.76 25.97 415.79 29.22 408.21 C 35.24 394.58 43.35 381.99 52.11 369.98 C 65.56 351.76 80.83 334.93 97.11 319.20 C 99.00 317.59 100.01 315.26 100.18 312.81 Z" />
</g>
<g id="#b9e4efff">
<path fill="#b9e4ef" opacity="1.00" d=" M 18.87 193.09 C 25.97 206.55 34.25 219.37 43.52 231.44 C 64.01 258.01 87.81 281.93 113.51 303.45 C 136.33 322.36 160.86 339.37 187.34 352.77 C 199.16 358.66 211.37 363.84 224.03 367.67 C 226.39 368.52 228.82 367.60 231.07 366.88 C 261.96 357.00 290.10 340.16 316.23 321.23 C 351.45 295.22 383.37 264.62 410.13 229.94 C 413.93 229.14 418.13 229.64 422.06 229.02 C 416.64 239.53 409.53 249.04 402.45 258.46 C 390.03 274.79 376.05 289.86 361.44 304.24 C 361.51 304.62 361.64 305.39 361.71 305.77 C 356.92 304.70 352.35 308.58 352.29 313.39 C 348.82 315.43 346.12 318.45 343.09 321.05 C 325.11 336.74 305.99 351.19 285.67 363.72 C 267.47 374.83 248.33 384.70 227.88 390.94 C 225.84 391.65 223.80 390.67 221.86 390.12 C 193.94 380.73 168.27 365.71 144.33 348.74 C 128.86 337.72 114.23 325.57 100.18 312.81 C 99.78 308.55 95.93 305.19 91.62 305.60 C 87.94 300.28 82.61 296.42 78.43 291.54 C 57.07 268.68 36.78 244.14 23.31 215.69 C 21.43 211.99 20.59 207.79 18.07 204.42 C 18.33 200.64 18.58 196.86 18.87 193.09 Z" />
</g>
</svg>
