<?xml version="1.0" encoding="UTF-8" ?>
<!DOCTYPE svg PUBLIC "-//W3C//DTD SVG 1.1//EN" "http://www.w3.org/Graphics/SVG/1.1/DTD/svg11.dtd">
<svg width="512pt" height="512pt" viewBox="0 0 512 512" version="1.1" xmlns="http://www.w3.org/2000/svg">
<g id="#ddb442ff">
<path fill="#ddb442" opacity="1.00" d=" M 242.33 0.00 L 253.49 0.00 C 257.55 0.65 261.61 1.38 265.64 2.18 L 266.67 2.50 C 260.03 2.86 253.17 3.21 247.04 6.07 C 234.72 11.60 225.34 22.10 218.74 33.66 C 211.77 46.13 207.42 60.61 209.33 74.98 C 211.34 89.53 216.75 103.42 223.69 116.29 C 226.67 122.04 230.35 127.40 233.45 133.09 C 222.07 127.80 210.99 121.72 200.86 114.28 C 196.07 110.35 190.98 106.76 186.57 102.39 C 183.98 99.93 181.62 97.21 178.73 95.09 C 177.80 95.69 177.01 96.47 176.32 97.33 C 165.72 110.54 158.38 126.36 155.28 143.02 C 152.22 161.18 153.89 179.66 153.38 197.97 C 146.76 197.79 139.90 198.73 134.36 202.65 C 134.31 166.09 134.37 129.54 134.34 92.98 C 134.36 86.33 134.02 79.51 136.01 73.08 C 139.03 63.60 147.29 56.18 156.93 53.89 C 161.89 52.47 167.09 53.22 172.05 54.19 C 179.41 30.94 198.28 12.15 221.18 4.06 C 228.09 2.07 235.13 0.42 242.33 0.00 Z" />
</g>
<g id="#394852ff">
<path fill="#394852" opacity="1.00" d=" M 265.64 2.18 C 295.84 2.94 325.82 9.71 353.72 21.21 C 348.60 24.87 344.24 29.44 339.50 33.54 C 328.22 25.35 314.79 21.16 302.00 16.01 C 290.23 11.51 278.60 6.59 266.67 2.50 L 265.64 2.18 Z" />
<path fill="#394852" opacity="1.00" d=" M 152.06 23.99 C 173.98 14.03 197.41 7.71 221.18 4.06 C 198.28 12.15 179.41 30.94 172.05 54.19 C 167.09 53.22 161.89 52.47 156.93 53.89 C 147.29 56.18 139.03 63.60 136.01 73.08 C 134.02 79.51 134.36 86.33 134.34 92.98 C 134.37 129.54 134.31 166.09 134.36 202.65 C 127.79 207.39 123.74 215.08 122.85 223.07 C 121.40 234.02 125.89 244.91 132.43 253.49 C 137.51 259.95 144.58 265.76 153.10 266.38 C 156.79 266.76 160.28 265.24 163.58 263.79 C 175.74 289.86 199.50 309.98 226.99 318.27 C 226.93 323.22 226.93 328.24 228.07 333.09 L 228.29 334.27 C 211.86 333.84 195.44 334.67 179.01 334.60 C 168.33 334.65 157.32 333.88 147.05 337.44 C 123.91 344.61 107.05 367.73 107.42 391.99 C 107.31 404.96 107.52 417.94 107.33 430.92 C 107.04 441.94 107.19 452.97 106.96 463.99 C 104.09 461.56 101.05 459.36 98.07 457.07 C 67.65 433.01 42.70 402.02 26.02 366.99 C 6.60 326.78 -1.63 281.35 1.84 236.86 C 5.27 191.38 21.32 146.94 47.76 109.77 C 74.02 72.54 110.42 42.52 152.06 23.99 Z" />
<path fill="#394852" opacity="1.00" d=" M 429.10 197.84 C 453.94 193.72 476.84 179.51 491.79 159.28 C 507.38 196.75 513.68 238.00 510.22 278.43 C 506.79 320.38 492.65 361.41 469.50 396.57 C 452.43 422.92 430.08 445.56 404.95 464.26 C 404.98 453.20 404.51 442.14 404.84 431.08 C 405.02 418.07 404.89 405.05 404.92 392.03 C 404.97 376.85 398.73 361.75 387.84 351.15 C 377.19 340.40 362.14 334.43 347.05 334.43 C 326.26 334.51 305.47 333.98 284.68 334.36 C 286.43 329.12 285.97 323.53 286.00 318.10 C 313.42 309.72 337.07 289.66 349.25 263.64 C 354.51 266.72 361.04 267.34 366.63 264.74 C 377.37 259.89 384.72 249.51 388.46 238.61 C 392.68 226.58 389.81 211.86 379.80 203.52 C 379.89 200.31 379.92 197.09 379.92 193.88 C 395.69 199.11 412.70 200.68 429.10 197.84 Z" />
</g>
<g id="#60bf81ff">
<path fill="#60bf81" opacity="1.00" d=" M 353.72 21.21 C 376.79 3.97 407.58 -2.25 435.54 4.61 C 457.29 9.76 477.08 22.64 490.65 40.38 C 503.14 56.51 510.39 76.62 511.04 97.00 C 511.94 119.16 505.00 141.48 491.79 159.28 C 476.84 179.51 453.94 193.72 429.10 197.84 C 412.70 200.68 395.69 199.11 379.92 193.88 C 379.90 170.31 379.91 146.74 379.91 123.18 C 383.20 123.19 386.49 123.19 389.78 123.20 C 389.88 130.77 389.59 138.34 389.89 145.91 C 390.08 152.13 392.99 158.18 397.74 162.20 C 403.19 166.97 411.02 168.76 418.02 166.94 C 427.09 164.76 434.28 156.40 434.89 147.06 C 435.39 139.11 434.94 131.13 435.12 123.18 C 443.44 123.02 451.79 123.58 460.10 122.87 C 471.16 121.67 480.00 111.11 479.51 100.04 C 479.47 89.31 470.78 79.43 460.08 78.23 C 451.78 77.50 443.43 78.09 435.10 77.90 C 434.91 69.60 435.49 61.26 434.78 52.98 C 433.55 41.60 422.46 32.57 411.07 33.52 C 400.27 33.96 390.66 43.18 389.99 54.00 C 389.48 61.95 389.92 69.93 389.79 77.89 C 384.50 77.91 379.21 77.90 373.93 77.92 C 367.27 60.10 355.14 44.38 339.50 33.54 C 344.24 29.44 348.60 24.87 353.72 21.21 Z" />
</g>
<g id="#f4de6eff">
<path fill="#f4de6e" opacity="1.00" d=" M 247.04 6.07 C 253.17 3.21 260.03 2.86 266.67 2.50 C 278.60 6.59 290.23 11.51 302.00 16.01 C 314.79 21.16 328.22 25.35 339.50 33.54 C 355.14 44.38 367.27 60.10 373.93 77.92 C 379.57 92.30 380.32 107.91 379.91 123.18 C 379.91 146.74 379.90 170.31 379.92 193.88 C 379.92 197.09 379.89 200.31 379.80 203.52 C 373.96 198.97 366.43 197.65 359.20 198.01 C 359.22 185.83 359.57 173.64 358.99 161.47 C 350.28 161.25 341.56 160.64 332.93 159.41 C 298.78 155.41 264.81 147.42 233.45 133.09 C 230.35 127.40 226.67 122.04 223.69 116.29 C 216.75 103.42 211.34 89.53 209.33 74.98 C 207.42 60.61 211.77 46.13 218.74 33.66 C 225.34 22.10 234.72 11.60 247.04 6.07 Z" />
</g>
<g id="#e8f1f5ff">
<path fill="#e8f1f5" opacity="1.00" d=" M 389.99 54.00 C 390.66 43.18 400.27 33.96 411.07 33.52 C 422.46 32.57 433.55 41.60 434.78 52.98 C 435.49 61.26 434.91 69.60 435.10 77.90 C 443.43 78.09 451.78 77.50 460.08 78.23 C 470.78 79.43 479.47 89.31 479.51 100.04 C 480.00 111.11 471.16 121.67 460.10 122.87 C 451.79 123.58 443.44 123.02 435.12 123.18 C 434.94 131.13 435.39 139.11 434.89 147.06 C 434.28 156.40 427.09 164.76 418.02 166.94 C 411.02 168.76 403.19 166.97 397.74 162.20 C 392.99 158.18 390.08 152.13 389.89 145.91 C 389.59 138.34 389.88 130.77 389.78 123.20 C 386.49 123.19 383.20 123.19 379.91 123.18 C 380.32 107.91 379.57 92.30 373.93 77.92 C 379.21 77.90 384.50 77.91 389.79 77.89 C 389.92 69.93 389.48 61.95 389.99 54.00 Z" />
</g>
<g id="#e5c7afff">
<path fill="#e5c7af" opacity="1.00" d=" M 176.32 97.33 C 177.01 96.47 177.80 95.69 178.73 95.09 C 181.62 97.21 183.98 99.93 186.57 102.39 C 190.98 106.76 196.07 110.35 200.86 114.28 C 195.85 121.35 193.32 129.78 191.24 138.09 C 188.91 147.19 188.64 156.63 188.17 165.97 C 188.09 181.65 188.19 197.33 188.12 213.01 C 188.25 229.08 190.07 245.49 196.77 260.28 C 209.92 291.13 239.04 314.49 272.03 320.59 C 263.92 323.18 255.31 321.73 246.96 322.11 C 246.71 330.19 248.76 338.58 254.21 344.76 C 257.47 348.87 262.17 351.40 266.96 353.30 C 259.47 355.84 251.07 355.60 243.94 352.06 C 235.96 348.68 230.46 341.25 228.07 333.09 C 226.93 328.24 226.93 323.22 226.99 318.27 C 199.50 309.98 175.74 289.86 163.58 263.79 C 160.28 265.24 156.79 266.76 153.10 266.38 C 144.58 265.76 137.51 259.95 132.43 253.49 C 125.89 244.91 121.40 234.02 122.85 223.07 C 123.74 215.08 127.79 207.39 134.36 202.65 C 139.90 198.73 146.76 197.79 153.38 197.97 C 153.89 179.66 152.22 161.18 155.28 143.02 C 158.38 126.36 165.72 110.54 176.32 97.33 M 137.28 218.31 C 133.84 219.77 132.36 224.44 134.36 227.62 C 136.22 231.29 141.39 230.17 143.84 233.17 C 147.60 237.05 148.62 242.50 150.89 247.21 C 152.26 249.90 155.10 251.23 158.06 251.03 C 156.39 243.07 153.85 235.20 153.96 226.97 C 154.23 223.49 151.01 221.19 148.36 219.60 C 144.99 218.04 140.86 216.53 137.28 218.31 Z" />
<path fill="#e5c7af" opacity="1.00" d=" M 359.20 198.01 C 366.43 197.65 373.96 198.97 379.80 203.52 C 389.81 211.86 392.68 226.58 388.46 238.61 C 384.72 249.51 377.37 259.89 366.63 264.74 C 361.04 267.34 354.51 266.72 349.25 263.64 C 351.31 259.41 352.97 254.99 354.39 250.50 C 356.42 250.70 358.87 251.23 360.31 249.34 C 364.01 244.88 364.26 238.51 368.08 234.08 C 370.11 231.37 373.74 231.05 376.55 229.52 C 380.92 226.73 379.78 217.93 373.95 217.92 C 368.13 216.76 362.97 220.16 359.04 224.06 C 359.26 215.37 358.98 206.69 359.20 198.01 Z" />
<path fill="#e5c7af" opacity="1.00" d=" M 243.31 224.32 C 247.12 222.58 250.33 225.77 253.42 227.47 C 256.58 228.95 260.09 227.72 262.62 225.61 C 264.93 223.60 268.51 223.18 271.05 225.00 C 273.29 227.15 275.04 231.01 272.65 233.70 C 265.05 243.98 246.84 244.07 239.87 233.01 C 237.86 229.87 239.83 225.36 243.31 224.32 Z" />
</g>
<g id="#f2d6bcff">
<path fill="#f2d6bc" opacity="1.00" d=" M 191.24 138.09 C 193.32 129.78 195.85 121.35 200.86 114.28 C 210.99 121.72 222.07 127.80 233.45 133.09 C 264.81 147.42 298.78 155.41 332.93 159.41 C 341.56 160.64 350.28 161.25 358.99 161.47 C 359.57 173.64 359.22 185.83 359.20 198.01 C 358.98 206.69 359.26 215.37 359.04 224.06 C 358.72 233.03 357.12 241.95 354.39 250.50 C 352.97 254.99 351.31 259.41 349.25 263.64 C 337.07 289.66 313.42 309.72 286.00 318.10 C 285.97 323.53 286.43 329.12 284.68 334.36 C 281.85 342.87 275.28 349.92 266.96 353.30 C 262.17 351.40 257.47 348.87 254.21 344.76 C 248.76 338.58 246.71 330.19 246.96 322.11 C 255.31 321.73 263.92 323.18 272.03 320.59 C 239.04 314.49 209.92 291.13 196.77 260.28 C 190.07 245.49 188.25 229.08 188.12 213.01 C 188.19 197.33 188.09 181.65 188.17 165.97 C 188.64 156.63 188.91 147.19 191.24 138.09 M 223.31 165.42 C 214.89 167.58 206.44 169.67 198.04 171.91 C 196.11 172.47 193.98 172.98 192.61 174.57 C 189.63 177.65 191.12 183.46 195.05 184.98 C 197.51 186.13 200.20 185.17 202.66 184.60 C 211.85 182.11 221.14 180.00 230.28 177.35 C 234.99 175.95 236.19 168.72 232.07 165.98 C 229.53 163.95 226.18 164.74 223.31 165.42 M 281.39 165.48 C 278.28 167.25 277.27 171.79 279.35 174.72 C 281.24 177.61 284.98 177.98 288.02 178.90 C 296.82 181.01 305.53 183.56 314.37 185.46 C 319.16 186.37 323.27 181.06 321.47 176.62 C 320.42 173.46 316.97 172.39 314.06 171.69 C 305.67 169.71 297.39 167.31 289.01 165.27 C 286.52 164.74 283.74 164.13 281.39 165.48 M 213.40 194.51 C 208.63 197.18 209.93 203.46 209.98 207.99 C 209.89 213.00 216.25 216.24 220.28 213.27 C 224.50 210.33 223.19 204.41 223.16 200.02 C 223.20 195.28 217.43 192.09 213.40 194.51 M 293.37 194.39 C 290.05 195.86 289.48 199.77 289.60 202.99 C 289.70 206.36 289.11 210.58 292.15 212.91 C 295.45 215.80 301.25 214.19 302.56 210.00 C 303.32 206.33 303.24 202.49 302.72 198.79 C 302.00 194.75 296.96 192.45 293.37 194.39 M 243.31 224.32 C 239.83 225.36 237.86 229.87 239.87 233.01 C 246.84 244.07 265.05 243.98 272.65 233.70 C 275.04 231.01 273.29 227.15 271.05 225.00 C 268.51 223.18 264.93 223.60 262.62 225.61 C 260.09 227.72 256.58 228.95 253.42 227.47 C 250.33 225.77 247.12 222.58 243.31 224.32 M 227.32 260.39 C 223.91 262.04 223.31 267.28 226.73 269.28 C 244.41 279.90 267.83 279.85 285.69 269.66 C 289.34 268.01 289.28 262.05 285.67 260.40 C 282.72 258.84 279.65 260.81 276.95 261.95 C 264.19 267.99 248.78 267.94 236.00 261.98 C 233.30 260.87 230.26 258.82 227.32 260.39 Z" />
<path fill="#f2d6bc" opacity="1.00" d=" M 107.70 430.95 C 122.74 431.18 137.78 430.98 152.83 431.04 C 160.04 431.07 167.26 431.06 174.47 431.03 C 173.65 436.32 173.97 441.68 173.93 447.02 C 173.59 464.21 173.91 481.40 173.73 498.60 C 166.62 496.23 159.68 493.40 152.79 490.45 C 152.65 477.48 152.63 464.50 152.85 451.53 C 159.82 451.54 166.78 451.53 173.75 451.54 C 173.80 445.46 173.78 439.39 173.78 433.31 C 173.09 432.61 172.39 431.91 171.69 431.21 C 150.36 431.23 129.03 431.16 107.70 431.23 L 107.70 430.95 Z" />
<path fill="#f2d6bc" opacity="1.00" d=" M 338.89 431.31 C 342.24 430.71 345.66 431.05 349.05 431.04 C 367.65 431.09 386.24 431.01 404.84 431.08 C 404.51 442.14 404.98 453.20 404.95 464.26 C 391.27 474.18 376.55 482.60 361.19 489.62 C 360.95 476.93 361.10 464.23 361.08 451.53 C 375.56 451.53 390.05 451.54 404.54 451.53 C 404.52 444.76 404.49 437.99 404.56 431.23 C 385.71 431.19 366.86 431.25 348.01 431.18 C 344.95 431.12 341.86 431.03 338.85 431.69 L 338.89 431.31 Z" />
</g>
<g id="#ddbca2ff">
<path fill="#ddbca2" opacity="1.00" d=" M 223.31 165.42 C 226.18 164.74 229.53 163.95 232.07 165.98 C 236.19 168.72 234.99 175.95 230.28 177.35 C 221.14 180.00 211.85 182.11 202.66 184.60 C 200.20 185.17 197.51 186.13 195.05 184.98 C 191.12 183.46 189.63 177.65 192.61 174.57 C 193.98 172.98 196.11 172.47 198.04 171.91 C 206.44 169.67 214.89 167.58 223.31 165.42 Z" />
<path fill="#ddbca2" opacity="1.00" d=" M 281.39 165.48 C 283.74 164.13 286.52 164.74 289.01 165.27 C 297.39 167.31 305.67 169.71 314.06 171.69 C 316.97 172.39 320.42 173.46 321.47 176.62 C 323.27 181.06 319.16 186.37 314.37 185.46 C 305.53 183.56 296.82 181.01 288.02 178.90 C 284.98 177.98 281.24 177.61 279.35 174.72 C 277.27 171.79 278.28 167.25 281.39 165.48 Z" />
<path fill="#ddbca2" opacity="1.00" d=" M 137.28 218.31 C 140.86 216.53 144.99 218.04 148.36 219.60 C 151.01 221.19 154.23 223.49 153.96 226.97 C 153.85 235.20 156.39 243.07 158.06 251.03 C 155.10 251.23 152.26 249.90 150.89 247.21 C 148.62 242.50 147.60 237.05 143.84 233.17 C 141.39 230.17 136.22 231.29 134.36 227.62 C 132.36 224.44 133.84 219.77 137.28 218.31 Z" />
<path fill="#ddbca2" opacity="1.00" d=" M 359.04 224.06 C 362.97 220.16 368.13 216.76 373.95 217.92 C 379.78 217.93 380.92 226.73 376.55 229.52 C 373.74 231.05 370.11 231.37 368.08 234.08 C 364.26 238.51 364.01 244.88 360.31 249.34 C 358.87 251.23 356.42 250.70 354.39 250.50 C 357.12 241.95 358.72 233.03 359.04 224.06 Z" />
<path fill="#ddbca2" opacity="1.00" d=" M 227.32 260.39 C 230.26 258.82 233.30 260.87 236.00 261.98 C 248.78 267.94 264.19 267.99 276.95 261.95 C 279.65 260.81 282.72 258.84 285.67 260.40 C 289.28 262.05 289.34 268.01 285.69 269.66 C 267.83 279.85 244.41 279.90 226.73 269.28 C 223.31 267.28 223.91 262.04 227.32 260.39 Z" />
<path fill="#ddbca2" opacity="1.00" d=" M 228.07 333.09 C 230.46 341.25 235.96 348.68 243.94 352.06 C 251.07 355.60 259.47 355.84 266.96 353.30 C 275.28 349.92 281.85 342.87 284.68 334.36 C 295.91 335.09 307.18 334.33 318.43 334.80 C 312.11 347.28 302.48 358.26 290.20 365.13 C 273.23 374.82 252.11 376.73 233.65 370.36 C 216.69 364.73 202.68 351.94 194.50 336.17 L 193.93 334.68 C 205.38 334.32 216.85 334.83 228.29 334.27 L 228.07 333.09 Z" />
<path fill="#ddbca2" opacity="1.00" d=" M 107.33 430.92 L 107.70 430.95 L 107.70 431.23 C 107.54 437.99 107.51 444.75 107.57 451.51 C 122.66 451.56 137.75 451.52 152.85 451.53 C 152.63 464.50 152.65 477.48 152.79 490.45 C 136.68 483.23 121.11 474.59 106.96 463.99 C 107.19 452.97 107.04 441.94 107.33 430.92 Z" />
<path fill="#ddbca2" opacity="1.00" d=" M 338.58 431.39 L 338.89 431.31 L 338.85 431.69 C 337.98 438.27 338.58 444.91 338.43 451.52 C 345.98 451.55 353.53 451.52 361.08 451.53 C 361.10 464.23 360.95 476.93 361.19 489.62 C 353.71 493.19 345.94 496.08 338.10 498.74 C 338.08 477.85 338.16 456.96 337.95 436.07 C 338.09 434.53 337.75 432.74 338.58 431.39 Z" />
</g>
<g id="#3d474fff">
<path fill="#3d474f" opacity="1.00" d=" M 213.40 194.51 C 217.43 192.09 223.20 195.28 223.16 200.02 C 223.19 204.41 224.50 210.33 220.28 213.27 C 216.25 216.24 209.89 213.00 209.98 207.99 C 209.93 203.46 208.63 197.18 213.40 194.51 Z" />
<path fill="#3d474f" opacity="1.00" d=" M 293.37 194.39 C 296.96 192.45 302.00 194.75 302.72 198.79 C 303.24 202.49 303.32 206.33 302.56 210.00 C 301.25 214.19 295.45 215.80 292.15 212.91 C 289.11 210.58 289.70 206.36 289.60 202.99 C 289.48 199.77 290.05 195.86 293.37 194.39 Z" />
</g>
<g id="#ea505fff">
<path fill="#ea505f" opacity="1.00" d=" M 179.01 334.60 C 195.44 334.67 211.86 333.84 228.29 334.27 C 216.85 334.83 205.38 334.32 193.93 334.68 L 194.50 336.17 C 189.11 338.88 183.27 340.75 178.28 344.22 C 162.81 354.43 152.93 372.50 152.76 391.05 C 152.62 404.37 152.63 417.71 152.83 431.04 C 137.78 430.98 122.74 431.18 107.70 430.95 L 107.33 430.92 C 107.52 417.94 107.31 404.96 107.42 391.99 C 107.05 367.73 123.91 344.61 147.05 337.44 C 157.32 333.88 168.33 334.65 179.01 334.60 Z" />
</g>
<g id="#ff806dff">
<path fill="#ff806d" opacity="1.00" d=" M 284.68 334.36 C 305.47 333.98 326.26 334.51 347.05 334.43 C 362.14 334.43 377.19 340.40 387.84 351.15 C 398.73 361.75 404.97 376.85 404.92 392.03 C 404.89 405.05 405.02 418.07 404.84 431.08 C 386.24 431.01 367.65 431.09 349.05 431.04 C 345.66 431.05 342.24 430.71 338.89 431.31 L 338.58 431.39 C 337.75 432.74 338.09 434.53 337.95 436.07 C 338.16 456.96 338.08 477.85 338.10 498.74 C 313.78 506.66 288.37 511.43 262.77 512.00 L 247.29 512.00 C 222.29 511.15 197.43 506.58 173.73 498.60 C 173.91 481.40 173.59 464.21 173.93 447.02 C 173.97 441.68 173.65 436.32 174.47 431.03 C 167.26 431.06 160.04 431.07 152.83 431.04 C 152.63 417.71 152.62 404.37 152.76 391.05 C 152.93 372.50 162.81 354.43 178.28 344.22 C 183.27 340.75 189.11 338.88 194.50 336.17 C 202.68 351.94 216.69 364.73 233.65 370.36 C 252.11 376.73 273.23 374.82 290.20 365.13 C 302.48 358.26 312.11 347.28 318.43 334.80 C 307.18 334.33 295.91 335.09 284.68 334.36 Z" />
</g>
<g id="#2c6289ff">
<path fill="#2c6289" opacity="1.00" d=" M 107.70 431.23 C 129.03 431.16 150.36 431.23 171.69 431.21 C 172.39 431.91 173.09 432.61 173.78 433.31 C 173.78 439.39 173.80 445.46 173.75 451.54 C 166.78 451.53 159.82 451.54 152.85 451.53 C 137.75 451.52 122.66 451.56 107.57 451.51 C 107.51 444.75 107.54 437.99 107.70 431.23 Z" />
<path fill="#2c6289" opacity="1.00" d=" M 338.85 431.69 C 341.86 431.03 344.95 431.12 348.01 431.18 C 366.86 431.25 385.71 431.19 404.56 431.23 C 404.49 437.99 404.52 444.76 404.54 451.53 C 390.05 451.54 375.56 451.53 361.08 451.53 C 353.53 451.52 345.98 451.55 338.43 451.52 C 338.58 444.91 337.98 438.27 338.85 431.69 Z" />
</g>
</svg>
