<?xml version="1.0" encoding="UTF-8" ?>
<!DOCTYPE svg PUBLIC "-//W3C//DTD SVG 1.1//EN" "http://www.w3.org/Graphics/SVG/1.1/DTD/svg11.dtd">
<svg width="512pt" height="512pt" viewBox="0 0 512 512" version="1.1" xmlns="http://www.w3.org/2000/svg">
<g id="#4ac688ff">
<path fill="#4ac688" opacity="1.00" d=" M 253.23 0.00 L 259.65 0.00 C 296.59 0.63 333.44 9.03 366.72 25.16 C 384.51 33.60 401.11 44.37 416.59 56.52 C 399.20 60.44 383.36 69.81 370.98 82.55 C 362.61 55.50 343.73 31.92 319.21 17.77 C 309.62 12.13 299.14 8.11 288.37 5.39 C 261.22 -1.34 231.68 2.74 207.17 16.16 C 181.23 30.21 161.17 54.66 152.56 82.88 C 140.91 70.09 125.26 61.15 108.48 57.06 C 104.90 56.10 101.24 55.42 97.54 55.08 C 141.34 19.99 197.15 0.48 253.23 0.00 Z" />
<path fill="#4ac688" opacity="1.00" d=" M 10.15 184.24 C 20.31 203.42 37.78 218.54 58.21 225.86 C 55.03 248.02 55.26 270.68 59.43 292.70 C 65.36 325.62 80.07 356.87 101.31 382.68 C 104.52 386.86 108.01 390.83 112.00 394.29 C 112.03 411.86 112.00 429.42 112.01 446.99 C 111.98 455.02 113.86 462.89 116.11 470.55 C 92.73 454.93 71.60 435.86 54.32 413.64 C 19.81 369.87 0.46 314.53 0.00 258.80 L 0.00 251.19 C 0.49 228.56 3.88 206.00 10.15 184.24 Z" />
<path fill="#4ac688" opacity="1.00" d=" M 477.35 220.43 C 488.21 214.84 497.22 206.44 505.25 197.36 C 509.51 215.67 511.73 234.42 512.00 253.20 L 512.00 258.83 C 511.53 297.60 502.29 336.27 484.80 370.89 C 464.53 411.28 433.34 446.07 395.46 470.69 C 395.95 465.98 394.31 460.71 396.21 456.34 C 418.01 432.14 440.13 408.21 461.95 384.03 C 471.39 373.42 472.26 356.72 464.53 344.92 C 459.58 336.99 450.92 331.78 441.76 330.37 C 454.32 298.39 458.98 263.17 454.09 229.10 C 455.07 228.86 456.04 228.62 457.03 228.36 C 464.06 226.45 470.94 223.92 477.35 220.43 Z" />
</g>
<g id="#fd3581ff">
<path fill="#fd3581" opacity="1.00" d=" M 207.17 16.16 C 231.68 2.74 261.22 -1.34 288.37 5.39 C 283.09 7.59 277.49 8.91 272.26 11.23 C 250.20 20.53 230.87 36.78 218.77 57.52 C 218.60 57.55 218.25 57.61 218.07 57.65 C 207.02 59.72 197.10 66.64 190.96 76.01 C 181.81 89.53 181.35 108.33 189.73 122.33 C 193.27 128.58 198.79 133.31 203.80 138.33 C 204.10 138.62 204.70 139.20 204.99 139.49 C 205.17 141.37 205.30 143.26 205.71 145.11 C 213.70 176.73 236.02 204.40 265.29 218.79 C 272.61 222.76 280.67 224.95 288.44 227.83 C 263.90 233.93 237.32 231.24 214.36 220.69 C 195.48 212.08 179.06 198.21 167.37 181.07 C 160.21 170.69 154.91 159.06 151.50 146.92 C 151.17 145.54 150.83 144.17 150.50 142.80 C 145.91 123.11 146.57 102.20 152.56 82.88 C 161.17 54.66 181.23 30.21 207.17 16.16 Z" />
</g>
<g id="#fe4fb7ff">
<path fill="#fe4fb7" opacity="1.00" d=" M 288.37 5.39 C 299.14 8.11 309.62 12.13 319.21 17.77 C 343.73 31.92 362.61 55.50 370.98 82.55 C 378.59 106.77 377.68 133.43 368.82 157.18 C 365.26 148.63 358.07 141.87 349.44 138.58 C 339.27 135.02 327.26 136.90 318.84 143.72 C 310.77 149.90 306.19 159.96 306.28 170.07 C 306.23 187.37 306.27 204.67 306.26 221.97 C 300.48 224.37 294.51 226.32 288.44 227.83 C 280.67 224.95 272.61 222.76 265.29 218.79 C 236.02 204.40 213.70 176.73 205.71 145.11 C 205.30 143.26 205.17 141.37 204.99 139.49 C 218.73 152.91 232.17 166.63 245.80 180.17 C 249.22 183.44 252.26 187.58 257.00 189.01 C 262.54 190.88 268.99 189.31 273.07 185.13 C 288.96 169.30 304.77 153.38 320.65 137.54 C 324.44 133.69 328.51 130.05 331.70 125.66 C 338.89 115.79 341.56 102.83 338.93 90.91 C 336.21 77.92 327.15 66.41 315.07 60.87 C 303.25 55.34 288.99 55.54 277.25 61.18 C 271.34 63.86 266.41 68.17 261.92 72.77 C 251.38 60.67 234.63 54.47 218.77 57.52 C 230.87 36.78 250.20 20.53 272.26 11.23 C 277.49 8.91 283.09 7.59 288.37 5.39 Z" />
<path fill="#fe4fb7" opacity="1.00" d=" M 42.10 186.91 C 53.49 175.07 69.53 167.80 85.98 167.39 C 102.16 166.76 118.40 172.68 130.48 183.43 C 131.69 184.66 133.56 185.69 133.65 187.61 C 126.89 194.20 118.84 199.58 109.91 202.75 C 96.38 207.74 81.16 207.84 67.51 203.22 C 58.75 200.15 50.61 195.27 43.89 188.85 C 43.45 188.37 42.55 187.40 42.10 186.91 Z" />
</g>
<g id="#ffbb2fff">
<path fill="#ffbb2f" opacity="1.00" d=" M 34.04 73.06 C 51.82 59.10 75.09 52.60 97.54 55.08 C 101.24 55.42 104.90 56.10 108.48 57.06 C 97.91 60.50 87.40 64.73 78.46 71.49 C 70.38 77.52 62.86 84.60 57.63 93.29 C 52.09 92.06 46.64 90.44 41.07 89.38 C 37.23 88.48 33.14 91.32 32.44 95.15 C 31.63 98.65 33.75 102.59 37.21 103.66 C 41.83 105.13 46.62 105.94 51.30 107.21 C 46.03 110.98 40.60 114.51 35.38 118.35 C 31.67 120.76 31.23 126.59 34.46 129.58 C 36.57 131.90 39.97 132.22 42.81 131.27 C 42.31 134.83 42.01 138.42 41.82 142.01 C 35.98 142.45 30.13 142.16 24.28 142.21 L 24.30 142.78 C 24.15 159.99 31.59 176.90 43.89 188.85 C 50.61 195.27 58.75 200.15 67.51 203.22 C 67.70 206.72 71.44 208.23 73.66 210.37 C 80.31 216.11 87.98 220.50 96.00 224.03 C 100.11 225.67 104.37 226.90 108.46 228.60 C 91.94 232.71 74.21 231.59 58.21 225.86 C 37.78 218.54 20.31 203.42 10.15 184.24 C 4.42 173.60 1.14 161.75 0.00 149.73 L 0.00 135.46 C 2.15 111.13 14.62 87.94 34.04 73.06 Z" />
</g>
<g id="#ffd32cff">
<path fill="#ffd32c" opacity="1.00" d=" M 108.48 57.06 C 125.26 61.15 140.91 70.09 152.56 82.88 C 146.57 102.20 145.91 123.11 150.50 142.80 C 108.43 142.80 66.36 142.81 24.30 142.78 L 24.28 142.21 C 30.13 142.16 35.98 142.45 41.82 142.01 C 42.01 138.42 42.31 134.83 42.81 131.27 C 52.29 124.94 61.53 118.26 70.98 111.89 C 73.17 110.32 75.79 108.72 76.52 105.93 C 77.65 102.32 75.56 97.99 71.90 96.87 C 67.23 95.33 62.36 94.56 57.63 93.29 C 62.86 84.60 70.38 77.52 78.46 71.49 C 87.40 64.73 97.91 60.50 108.48 57.06 M 100.43 96.55 C 96.34 97.36 93.63 101.99 94.94 105.96 C 95.78 109.15 98.97 110.67 101.43 112.47 C 110.12 118.44 118.73 124.55 127.45 130.49 C 130.64 132.87 135.57 131.93 137.79 128.66 C 140.07 125.61 139.45 120.85 136.38 118.55 C 131.13 114.58 125.52 111.10 120.23 107.19 C 124.79 105.98 129.44 105.11 133.97 103.77 C 137.61 102.76 139.94 98.63 138.97 94.99 C 138.17 91.06 133.84 88.36 129.95 89.43 C 120.10 91.72 110.27 94.17 100.43 96.55 Z" />
<path fill="#ffd32c" opacity="1.00" d=" M 151.50 146.92 C 154.91 159.06 160.21 170.69 167.37 181.07 C 156.22 204.74 133.85 222.53 108.46 228.60 C 104.37 226.90 100.11 225.67 96.00 224.03 C 87.98 220.50 80.31 216.11 73.66 210.37 C 71.44 208.23 67.70 206.72 67.51 203.22 C 81.16 207.84 96.38 207.74 109.91 202.75 C 118.84 199.58 126.89 194.20 133.65 187.61 C 143.90 176.60 151.19 162.15 151.50 146.92 Z" />
</g>
<g id="#f9f7f8ff">
<path fill="#f9f7f8" opacity="1.00" d=" M 218.07 57.65 C 218.25 57.61 218.60 57.55 218.77 57.52 C 234.63 54.47 251.38 60.67 261.92 72.77 C 266.41 68.17 271.34 63.86 277.25 61.18 C 288.99 55.54 303.25 55.34 315.07 60.87 C 327.15 66.41 336.21 77.92 338.93 90.91 C 341.56 102.83 338.89 115.79 331.70 125.66 C 328.51 130.05 324.44 133.69 320.65 137.54 C 304.77 153.38 288.96 169.30 273.07 185.13 C 268.99 189.31 262.54 190.88 257.00 189.01 C 252.26 187.58 249.22 183.44 245.80 180.17 C 232.17 166.63 218.73 152.91 204.99 139.49 C 204.70 139.20 204.10 138.62 203.80 138.33 C 203.44 132.86 202.45 127.45 202.23 121.98 C 201.39 103.98 204.89 85.78 212.34 69.38 C 214.19 65.44 216.30 61.63 218.07 57.65 Z" />
<path fill="#f9f7f8" opacity="1.00" d=" M 439.20 77.13 C 445.06 83.29 450.76 89.62 456.06 96.27 C 453.10 105.40 450.26 114.57 447.39 123.73 C 456.68 123.76 465.98 123.71 475.27 123.75 C 480.37 132.31 484.98 141.16 489.22 150.18 C 488.26 157.98 486.77 165.69 485.63 173.46 C 485.01 177.14 484.65 181.14 482.16 184.12 C 479.55 187.58 475.16 189.24 470.92 189.12 C 457.97 189.18 445.01 189.08 432.06 189.16 C 428.83 189.13 425.36 189.22 422.55 187.37 C 418.98 185.27 416.91 181.14 417.02 177.03 C 416.94 161.00 417.05 144.97 416.98 128.94 C 416.92 125.60 417.33 122.25 418.44 119.08 C 421.88 108.36 425.13 97.58 428.61 86.87 C 430.07 81.92 434.46 78.65 439.20 77.13 Z" />
<path fill="#f9f7f8" opacity="1.00" d=" M 390.96 124.43 C 391.15 124.42 391.54 124.39 391.73 124.38 C 395.64 124.34 399.60 124.03 403.48 124.66 C 406.73 125.45 408.58 128.84 408.34 132.03 C 408.33 148.68 408.39 165.33 408.31 181.97 C 408.60 185.40 406.00 188.05 402.98 189.13 L 402.37 189.18 C 399.87 183.51 396.73 178.12 394.69 172.25 C 391.28 162.56 389.54 152.27 389.71 142.00 C 389.62 136.11 390.72 130.30 390.96 124.43 Z" />
</g>
<g id="#55a0ceff">
<path fill="#55a0ce" opacity="1.00" d=" M 370.98 82.55 C 383.36 69.81 399.20 60.44 416.59 56.52 C 421.41 60.23 426.01 64.25 430.38 68.49 C 410.97 81.20 396.04 101.36 391.73 124.38 C 391.54 124.39 391.15 124.42 390.96 124.43 C 388.24 125.40 385.81 127.86 386.02 130.92 C 385.96 147.95 386.02 164.99 386.00 182.02 C 385.77 185.11 387.89 188.33 391.00 188.95 C 394.76 189.55 398.59 189.31 402.37 189.18 L 402.98 189.13 C 414.77 208.67 434.80 223.20 457.03 228.36 C 456.04 228.62 455.07 228.86 454.09 229.10 C 424.46 235.72 391.73 225.51 371.33 202.98 C 371.34 192.34 371.34 181.71 371.34 171.07 C 371.37 166.33 370.58 161.59 368.82 157.18 C 377.68 133.43 378.59 106.77 370.98 82.55 Z" />
</g>
<g id="#dedbeeff">
<path fill="#dedbee" opacity="1.00" d=" M 190.96 76.01 C 197.10 66.64 207.02 59.72 218.07 57.65 C 216.30 61.63 214.19 65.44 212.34 69.38 C 204.89 85.78 201.39 103.98 202.23 121.98 C 202.45 127.45 203.44 132.86 203.80 138.33 C 198.79 133.31 193.27 128.58 189.73 122.33 C 181.35 108.33 181.81 89.53 190.96 76.01 Z" />
<path fill="#dedbee" opacity="1.00" d=" M 386.02 130.92 C 385.81 127.86 388.24 125.40 390.96 124.43 C 390.72 130.30 389.62 136.11 389.71 142.00 C 389.54 152.27 391.28 162.56 394.69 172.25 C 396.73 178.12 399.87 183.51 402.37 189.18 C 398.59 189.31 394.76 189.55 391.00 188.95 C 387.89 188.33 385.77 185.11 386.00 182.02 C 386.02 164.99 385.96 147.95 386.02 130.92 Z" />
</g>
<g id="#70b5e8ff">
<path fill="#70b5e8" opacity="1.00" d=" M 391.73 124.38 C 396.04 101.36 410.97 81.20 430.38 68.49 C 433.30 71.39 436.27 74.24 439.20 77.13 C 434.46 78.65 430.07 81.92 428.61 86.87 C 425.13 97.58 421.88 108.36 418.44 119.08 C 417.33 122.25 416.92 125.60 416.98 128.94 C 417.05 144.97 416.94 161.00 417.02 177.03 C 416.91 181.14 418.98 185.27 422.55 187.37 C 425.36 189.22 428.83 189.13 432.06 189.16 C 445.01 189.08 457.97 189.18 470.92 189.12 C 475.16 189.24 479.55 187.58 482.16 184.12 C 484.65 181.14 485.01 177.14 485.63 173.46 C 486.77 165.69 488.26 157.98 489.22 150.18 C 495.86 165.43 501.51 181.14 505.25 197.36 C 497.22 206.44 488.21 214.84 477.35 220.43 C 470.94 223.92 464.06 226.45 457.03 228.36 C 434.80 223.20 414.77 208.67 402.98 189.13 C 406.00 188.05 408.60 185.40 408.31 181.97 C 408.39 165.33 408.33 148.68 408.34 132.03 C 408.58 128.84 406.73 125.45 403.48 124.66 C 399.60 124.03 395.64 124.34 391.73 124.38 Z" />
<path fill="#70b5e8" opacity="1.00" d=" M 447.39 123.73 C 450.26 114.57 453.10 105.40 456.06 96.27 C 463.04 105.01 469.39 114.24 475.27 123.75 C 465.98 123.71 456.68 123.76 447.39 123.73 Z" />
</g>
<g id="#5a565eff">
<path fill="#5a565e" opacity="1.00" d=" M 32.44 95.15 C 33.14 91.32 37.23 88.48 41.07 89.38 C 46.64 90.44 52.09 92.06 57.63 93.29 C 62.36 94.56 67.23 95.33 71.90 96.87 C 75.56 97.99 77.65 102.32 76.52 105.93 C 75.79 108.72 73.17 110.32 70.98 111.89 C 61.53 118.26 52.29 124.94 42.81 131.27 C 39.97 132.22 36.57 131.90 34.46 129.58 C 31.23 126.59 31.67 120.76 35.38 118.35 C 40.60 114.51 46.03 110.98 51.30 107.21 C 46.62 105.94 41.83 105.13 37.21 103.66 C 33.75 102.59 31.63 98.65 32.44 95.15 Z" />
<path fill="#5a565e" opacity="1.00" d=" M 100.43 96.55 C 110.27 94.17 120.10 91.72 129.95 89.43 C 133.84 88.36 138.17 91.06 138.97 94.99 C 139.94 98.63 137.61 102.76 133.97 103.77 C 129.44 105.11 124.79 105.98 120.23 107.19 C 125.52 111.10 131.13 114.58 136.38 118.55 C 139.45 120.85 140.07 125.61 137.79 128.66 C 135.57 131.93 130.64 132.87 127.45 130.49 C 118.73 124.55 110.12 118.44 101.43 112.47 C 98.97 110.67 95.78 109.15 94.94 105.96 C 93.63 101.99 96.34 97.36 100.43 96.55 Z" />
</g>
<g id="#edb27eff">
<path fill="#edb27e" opacity="1.00" d=" M 318.84 143.72 C 327.26 136.90 339.27 135.02 349.44 138.58 C 342.96 142.03 336.63 146.41 333.00 152.98 C 330.13 157.81 328.67 163.40 328.62 169.00 C 328.58 231.68 328.67 294.37 328.59 357.06 C 328.67 362.15 324.92 366.85 319.94 367.90 C 314.80 369.08 308.85 366.08 307.24 360.96 C 306.63 358.36 306.74 355.68 306.72 353.04 C 306.94 331.36 306.48 309.68 306.69 288.00 C 306.75 284.61 306.43 281.24 305.94 277.90 C 306.10 275.60 306.32 273.30 306.31 270.99 C 306.23 254.65 306.32 238.31 306.26 221.97 C 306.27 204.67 306.23 187.37 306.28 170.07 C 306.19 159.96 310.77 149.90 318.84 143.72 Z" />
<path fill="#edb27e" opacity="1.00" d=" M 257.98 256.95 C 266.06 252.20 276.29 251.36 285.08 254.55 C 273.02 259.10 263.95 271.00 263.82 284.04 C 263.63 308.36 263.86 332.68 263.74 357.00 C 263.83 362.37 259.61 367.74 254.09 368.10 C 247.71 369.05 241.48 363.36 241.78 356.94 C 241.58 345.34 241.87 333.73 241.63 322.13 C 241.55 311.43 241.75 300.73 241.52 290.04 C 241.51 285.03 241.60 279.89 243.24 275.10 C 245.70 267.51 251.07 260.94 257.98 256.95 Z" />
<path fill="#edb27e" opacity="1.00" d=" M 180.86 284.91 C 187.98 271.41 205.31 264.36 219.73 269.74 C 213.32 273.38 206.93 277.72 203.29 284.35 C 200.20 289.68 198.81 295.87 198.94 302.01 C 198.99 319.34 198.91 336.67 199.01 354.00 C 199.00 357.78 198.81 362.11 195.81 364.84 C 191.99 369.03 184.77 369.33 180.70 365.35 C 178.25 363.31 176.90 360.21 176.99 357.04 C 176.78 344.75 177.16 332.46 176.80 320.18 C 177.55 308.43 174.66 295.64 180.86 284.91 Z" />
<path fill="#edb27e" opacity="1.00" d=" M 133.11 292.16 C 141.42 288.90 151.07 289.44 159.01 293.51 C 150.92 297.73 144.52 305.25 142.11 314.11 C 140.78 318.61 140.80 323.35 140.82 328.01 C 140.85 359.03 140.82 390.05 140.84 421.08 C 140.66 442.26 141.17 463.46 140.59 484.63 C 132.12 480.52 123.94 475.76 116.11 470.55 C 113.86 462.89 111.98 455.02 112.01 446.99 C 112.00 429.42 112.03 411.86 112.00 394.29 C 112.06 370.19 111.99 346.08 112.03 321.97 C 112.23 309.00 120.97 296.71 133.11 292.16 Z" />
<path fill="#edb27e" opacity="1.00" d=" M 415.51 338.40 C 422.56 332.09 432.38 329.11 441.76 330.37 C 450.92 331.78 459.58 336.99 464.53 344.92 C 460.11 343.77 455.56 341.92 450.94 343.07 C 444.34 344.39 440.11 350.13 435.21 354.23 C 418.84 368.86 402.67 383.71 386.25 398.29 C 381.73 402.69 373.33 400.15 371.75 394.13 C 370.78 389.02 371.54 383.77 371.36 378.61 C 386.10 365.24 400.78 351.79 415.51 338.40 Z" />
</g>
<g id="#fdd1a2ff">
<path fill="#fdd1a2" opacity="1.00" d=" M 333.00 152.98 C 336.63 146.41 342.96 142.03 349.44 138.58 C 358.07 141.87 365.26 148.63 368.82 157.18 C 370.58 161.59 371.37 166.33 371.34 171.07 C 371.34 181.71 371.34 192.34 371.33 202.98 C 371.36 261.52 371.31 320.07 371.36 378.61 C 371.54 383.77 370.78 389.02 371.75 394.13 C 373.33 400.15 381.73 402.69 386.25 398.29 C 402.67 383.71 418.84 368.86 435.21 354.23 C 440.11 350.13 444.34 344.39 450.94 343.07 C 455.56 341.92 460.11 343.77 464.53 344.92 C 472.26 356.72 471.39 373.42 461.95 384.03 C 440.13 408.21 418.01 432.14 396.21 456.34 C 394.31 460.71 395.95 465.98 395.46 470.69 C 354.79 497.32 306.36 511.71 257.77 512.00 L 254.23 512.00 C 214.90 511.75 175.76 502.21 140.59 484.63 C 141.17 463.46 140.66 442.26 140.84 421.08 C 140.82 390.05 140.85 359.03 140.82 328.01 C 140.80 323.35 140.78 318.61 142.11 314.11 C 144.52 305.25 150.92 297.73 159.01 293.51 C 168.96 298.66 176.12 308.91 176.80 320.18 C 177.16 332.46 176.78 344.75 176.99 357.04 C 176.90 360.21 178.25 363.31 180.70 365.35 C 184.77 369.33 191.99 369.03 195.81 364.84 C 198.81 362.11 199.00 357.78 199.01 354.00 C 198.91 336.67 198.99 319.34 198.94 302.01 C 198.81 295.87 200.20 289.68 203.29 284.35 C 206.93 277.72 213.32 273.38 219.73 269.74 C 231.58 273.89 240.97 285.22 241.43 297.96 C 241.63 306.02 241.28 314.08 241.63 322.13 C 241.87 333.73 241.58 345.34 241.78 356.94 C 241.48 363.36 247.71 369.05 254.09 368.10 C 259.61 367.74 263.83 362.37 263.74 357.00 C 263.86 332.68 263.63 308.36 263.82 284.04 C 263.95 271.00 273.02 259.10 285.08 254.55 C 295.37 258.36 303.11 267.37 305.94 277.90 C 306.43 281.24 306.75 284.61 306.69 288.00 C 306.48 309.68 306.94 331.36 306.72 353.04 C 306.74 355.68 306.63 358.36 307.24 360.96 C 308.85 366.08 314.80 369.08 319.94 367.90 C 324.92 366.85 328.67 362.15 328.59 357.06 C 328.67 294.37 328.58 231.68 328.62 169.00 C 328.67 163.40 330.13 157.81 333.00 152.98 Z" />
</g>
<g id="#413d44ff">
<path fill="#413d44" opacity="1.00" d=" M 24.30 142.78 C 66.36 142.81 108.43 142.80 150.50 142.80 C 150.83 144.17 151.17 145.54 151.50 146.92 C 151.19 162.15 143.90 176.60 133.65 187.61 C 133.56 185.69 131.69 184.66 130.48 183.43 C 118.40 172.68 102.16 166.76 85.98 167.39 C 69.53 167.80 53.49 175.07 42.10 186.91 C 42.55 187.40 43.45 188.37 43.89 188.85 C 31.59 176.90 24.15 159.99 24.30 142.78 Z" />
</g>
<g id="#5bd89dff">
<path fill="#5bd89d" opacity="1.00" d=" M 167.37 181.07 C 179.06 198.21 195.48 212.08 214.36 220.69 C 237.32 231.24 263.90 233.93 288.44 227.83 C 294.51 226.32 300.48 224.37 306.26 221.97 C 306.32 238.31 306.23 254.65 306.31 270.99 C 306.32 273.30 306.10 275.60 305.94 277.90 C 303.11 267.37 295.37 258.36 285.08 254.55 C 276.29 251.36 266.06 252.20 257.98 256.95 C 251.07 260.94 245.70 267.51 243.24 275.10 C 241.60 279.89 241.51 285.03 241.52 290.04 C 241.75 300.73 241.55 311.43 241.63 322.13 C 241.28 314.08 241.63 306.02 241.43 297.96 C 240.97 285.22 231.58 273.89 219.73 269.74 C 205.31 264.36 187.98 271.41 180.86 284.91 C 174.66 295.64 177.55 308.43 176.80 320.18 C 176.12 308.91 168.96 298.66 159.01 293.51 C 151.07 289.44 141.42 288.90 133.11 292.16 C 120.97 296.71 112.23 309.00 112.03 321.97 C 111.99 346.08 112.06 370.19 112.00 394.29 C 108.01 390.83 104.52 386.86 101.31 382.68 C 80.07 356.87 65.36 325.62 59.43 292.70 C 55.26 270.68 55.03 248.02 58.21 225.86 C 74.21 231.59 91.94 232.71 108.46 228.60 C 133.85 222.53 156.22 204.74 167.37 181.07 Z" />
<path fill="#5bd89d" opacity="1.00" d=" M 371.33 202.98 C 391.73 225.51 424.46 235.72 454.09 229.10 C 458.98 263.17 454.32 298.39 441.76 330.37 C 432.38 329.11 422.56 332.09 415.51 338.40 C 400.78 351.79 386.10 365.24 371.36 378.61 C 371.31 320.07 371.36 261.52 371.33 202.98 Z" />
</g>
</svg>
