<?xml version="1.0" encoding="UTF-8" ?>
<!DOCTYPE svg PUBLIC "-//W3C//DTD SVG 1.1//EN" "http://www.w3.org/Graphics/SVG/1.1/DTD/svg11.dtd">
<svg width="512pt" height="512pt" viewBox="0 0 512 512" version="1.1" xmlns="http://www.w3.org/2000/svg">
<g id="#a9d9f7ff">
<path fill="#a9d9f7" opacity="1.00" d=" M 253.39 0.00 L 258.57 0.00 C 300.84 0.40 343.05 11.33 379.97 32.00 C 429.22 59.22 469.08 103.11 491.21 154.88 C 504.54 185.59 511.46 218.97 512.00 252.43 L 512.00 258.59 C 511.56 298.38 501.86 338.06 483.51 373.39 C 466.53 406.29 442.30 435.41 413.06 458.13 C 398.82 469.33 383.23 478.72 367.04 486.81 C 369.45 476.61 367.98 466.04 368.38 455.68 C 401.31 436.85 429.66 410.00 449.88 377.88 C 472.13 342.82 484.27 301.52 484.89 260.02 C 485.98 208.86 469.28 157.50 437.96 117.00 C 416.60 89.15 388.88 66.14 357.39 50.60 C 328.55 36.19 296.59 28.45 264.43 27.11 C 240.56 26.20 216.55 28.98 193.57 35.50 C 154.25 46.46 118.14 68.44 90.10 98.07 C 61.61 127.72 41.40 165.25 32.48 205.40 C 21.13 255.96 27.19 310.39 50.19 356.91 C 70.46 398.11 103.39 433.04 143.43 455.55 C 143.85 465.93 142.34 476.52 144.84 486.72 C 119.93 474.47 96.84 458.44 77.02 438.97 C 51.23 413.80 30.82 383.12 17.67 349.56 C 6.27 320.67 0.38 289.68 0.00 258.64 L 0.00 250.60 C 0.64 225.43 4.76 200.33 12.62 176.39 C 30.59 121.10 68.17 72.47 117.07 41.03 C 157.33 14.66 205.29 0.45 253.39 0.00 Z" />
<path fill="#a9d9f7" opacity="1.00" d=" M 176.31 100.29 C 205.73 85.09 239.58 78.65 272.53 81.86 C 303.41 84.96 333.48 96.15 358.55 114.50 C 387.57 135.55 409.93 165.66 421.47 199.62 C 435.78 241.20 433.54 288.17 415.19 328.15 C 404.30 352.26 387.69 373.64 367.47 390.65 C 364.75 379.11 355.92 369.22 344.64 365.48 C 337.71 362.94 330.22 363.70 322.99 363.60 C 284.06 363.52 245.13 363.76 206.20 363.48 C 196.79 363.37 187.36 363.38 177.94 363.46 C 162.31 363.57 147.73 375.33 144.45 390.64 C 107.90 360.62 84.41 315.26 81.46 268.01 C 78.98 233.06 87.34 197.43 105.24 167.29 C 122.00 138.87 146.94 115.34 176.31 100.29 Z" />
</g>
<g id="#b748a2ff">
<path fill="#b748a2" opacity="1.00" d=" M 193.57 35.50 C 216.55 28.98 240.56 26.20 264.43 27.11 C 257.47 28.57 250.36 29.02 243.38 30.34 C 216.28 34.85 190.04 44.43 166.33 58.30 C 137.85 75.10 113.05 98.06 94.07 125.13 C 71.81 156.87 57.93 194.37 54.19 232.96 C 50.37 270.92 56.01 309.89 70.96 345.02 C 86.36 381.79 111.81 414.14 143.48 438.27 C 143.47 444.03 143.49 449.79 143.43 455.55 C 103.39 433.04 70.46 398.11 50.19 356.91 C 27.19 310.39 21.13 255.96 32.48 205.40 C 41.40 165.25 61.61 127.72 90.10 98.07 C 118.14 68.44 154.25 46.46 193.57 35.50 Z" />
<path fill="#b748a2" opacity="1.00" d=" M 272.53 81.86 C 275.34 81.45 278.15 80.96 281.01 80.96 C 304.15 81.01 327.38 85.31 348.75 94.28 C 378.50 106.63 404.85 127.22 423.62 153.43 C 441.63 178.09 452.98 207.58 455.98 237.98 C 458.65 262.55 455.74 287.63 448.08 311.10 C 436.81 344.62 415.38 374.81 386.90 395.87 C 381.24 400.01 375.66 404.41 369.19 407.25 C 368.84 403.46 368.61 399.66 368.25 395.88 C 368.07 394.12 367.82 392.37 367.47 390.65 C 387.69 373.64 404.30 352.26 415.19 328.15 C 433.54 288.17 435.78 241.20 421.47 199.62 C 409.93 165.66 387.57 135.55 358.55 114.50 C 333.48 96.15 303.41 84.96 272.53 81.86 Z" />
</g>
<g id="#c957aeff">
<path fill="#c957ae" opacity="1.00" d=" M 264.43 27.11 C 296.59 28.45 328.55 36.19 357.39 50.60 C 388.88 66.14 416.60 89.15 437.96 117.00 C 469.28 157.50 485.98 208.86 484.89 260.02 C 484.27 301.52 472.13 342.82 449.88 377.88 C 429.66 410.00 401.31 436.85 368.38 455.68 C 368.43 435.74 368.41 415.81 368.25 395.88 C 368.61 399.66 368.84 403.46 369.19 407.25 C 375.66 404.41 381.24 400.01 386.90 395.87 C 415.38 374.81 436.81 344.62 448.08 311.10 C 455.74 287.63 458.65 262.55 455.98 237.98 C 452.98 207.58 441.63 178.09 423.62 153.43 C 404.85 127.22 378.50 106.63 348.75 94.28 C 327.38 85.31 304.15 81.01 281.01 80.96 C 278.15 80.96 275.34 81.45 272.53 81.86 C 239.58 78.65 205.73 85.09 176.31 100.29 C 146.94 115.34 122.00 138.87 105.24 167.29 C 87.34 197.43 78.98 233.06 81.46 268.01 C 84.41 315.26 107.90 360.62 144.45 390.64 C 143.76 394.05 143.51 397.52 143.51 401.00 C 143.51 413.42 143.57 425.84 143.48 438.27 C 111.81 414.14 86.36 381.79 70.96 345.02 C 56.01 309.89 50.37 270.92 54.19 232.96 C 57.93 194.37 71.81 156.87 94.07 125.13 C 113.05 98.06 137.85 75.10 166.33 58.30 C 190.04 44.43 216.28 34.85 243.38 30.34 C 250.36 29.02 257.47 28.57 264.43 27.11 Z" />
</g>
<g id="#fd3581ff">
<path fill="#fd3581" opacity="1.00" d=" M 144.45 390.64 C 147.73 375.33 162.31 363.57 177.94 363.46 C 187.36 363.38 196.79 363.37 206.20 363.48 C 199.06 364.89 191.97 367.59 186.58 372.64 C 179.17 379.22 174.89 389.05 175.00 398.96 C 174.96 422.31 175.01 445.65 174.98 469.00 C 174.98 473.31 174.83 477.63 175.37 481.91 C 176.70 491.74 182.53 500.80 190.83 506.20 C 195.29 509.25 200.54 510.82 205.75 512.00 L 174.59 512.00 C 160.83 510.37 148.58 500.10 144.84 486.72 C 142.34 476.52 143.85 465.93 143.43 455.55 C 143.49 449.79 143.47 444.03 143.48 438.27 C 143.57 425.84 143.51 413.42 143.51 401.00 C 143.51 397.52 143.76 394.05 144.45 390.64 Z" />
</g>
<g id="#fe4fb7ff">
<path fill="#fe4fb7" opacity="1.00" d=" M 186.58 372.64 C 191.97 367.59 199.06 364.89 206.20 363.48 C 245.13 363.76 284.06 363.52 322.99 363.60 C 330.22 363.70 337.71 362.94 344.64 365.48 C 355.92 369.22 364.75 379.11 367.47 390.65 C 367.82 392.37 368.07 394.12 368.25 395.88 C 368.41 415.81 368.43 435.74 368.38 455.68 C 367.98 466.04 369.45 476.61 367.04 486.81 C 334.40 502.43 298.49 510.97 262.33 512.00 L 205.75 512.00 C 200.54 510.82 195.29 509.25 190.83 506.20 C 182.53 500.80 176.70 491.74 175.37 481.91 C 174.83 477.63 174.98 473.31 174.98 469.00 C 175.01 445.65 174.96 422.31 175.00 398.96 C 174.89 389.05 179.17 379.22 186.58 372.64 M 235.43 398.62 C 229.56 400.72 225.39 406.71 225.63 412.96 C 225.59 428.97 225.65 444.98 225.60 461.00 C 225.49 464.68 226.09 468.54 228.37 471.56 C 232.56 477.69 241.53 479.75 247.92 475.90 C 262.11 467.80 276.24 459.59 290.40 451.43 C 293.80 449.59 296.78 446.75 298.08 443.03 C 300.60 436.61 297.96 428.66 292.00 425.14 C 277.68 416.70 263.21 408.52 248.84 400.17 C 244.88 397.68 239.84 396.92 235.43 398.62 Z" />
</g>
<g id="#f9f7f8ff">
<path fill="#f9f7f8" opacity="1.00" d=" M 235.43 398.62 C 239.84 396.92 244.88 397.68 248.84 400.17 C 263.21 408.52 277.68 416.70 292.00 425.14 C 297.96 428.66 300.60 436.61 298.08 443.03 C 296.78 446.75 293.80 449.59 290.40 451.43 C 276.24 459.59 262.11 467.80 247.92 475.90 C 241.53 479.75 232.56 477.69 228.37 471.56 C 226.09 468.54 225.49 464.68 225.60 461.00 C 225.65 444.98 225.59 428.97 225.63 412.96 C 225.39 406.71 229.56 400.72 235.43 398.62 Z" />
</g>
</svg>
